<?xml version="1.0" encoding="iso-8859-1"?>
<!-- Generator: Adobe Illustrator 16.0.0, SVG Export Plug-In . SVG Version: 6.00 Build 0)  -->
<!DOCTYPE svg PUBLIC "-//W3C//DTD SVG 1.1//EN" "http://www.w3.org/Graphics/SVG/1.1/DTD/svg11.dtd">
<svg version="1.1" id="Capa_1" xmlns="http://www.w3.org/2000/svg" xmlns:xlink="http://www.w3.org/1999/xlink" x="0px" y="0px"
	 width="161.74px" height="161.739px" viewBox="0 0 161.74 161.739" style="enable-background:new 0 0 161.74 161.739;"
	 xml:space="preserve">
<g>
	<g>
		<path d="M68.029,66.322h-0.213c-0.485,3.112-1.17,7.953-1.661,10.648l-1.726,9.688h6.644l-1.519-9.749
			C69.057,74.064,68.437,69.434,68.029,66.322z"/>
		<path d="M57.029,79.44c0-2.671-1.029-5.115-3.777-5.115c-4.569,0-7.004,8.26-7.004,13.06c0,2.991,1.176,5.349,3.859,5.349
			C54.747,92.739,57.029,83.933,57.029,79.44z"/>
		<path d="M72.456,48.309c0-2.154-1.566-2.855-3.416-2.855c-0.898,0-1.531,0.065-1.933,0.163l-1.259,6.617
			c0.497,0.101,1.028,0.163,1.826,0.163C70.564,52.402,72.456,50.537,72.456,48.309z"/>
		<path d="M89.243,49.901c-0.101-1.229-0.237-3.026-0.337-4.389h-0.071c-0.567,1.362-1.188,3.095-1.797,4.389l-2.229,4.823h4.864
			L89.243,49.901z"/>
		<path d="M85.903,95.494c-4.563,0-7.004,8.347-7.004,13.146c0,3.068,1.182,5.35,3.86,5.35c4.646,0,6.927-8.891,6.927-13.376
			C89.679,97.936,88.657,95.494,85.903,95.494z"/>
		<path d="M157.778,74.47l-5.609-3.735c-5.272-3.518-7.288-11.054-4.475-16.739l2.979-6.041c2.813-5.687-0.077-10.678-6.408-11.089
			l-6.702-0.438c-6.331-0.398-11.846-5.925-12.253-12.25l-0.438-6.711c-0.402-6.325-5.396-9.206-11.083-6.398l-6.035,2.973
			c-5.686,2.813-13.222,0.798-16.739-4.48l-3.729-5.598c-3.522-5.284-9.28-5.284-12.803,0l-3.729,5.604
			c-3.523,5.284-11.053,7.3-16.745,4.48l-6.041-2.979c-5.68-2.813-10.675,0.074-11.077,6.398l-0.432,6.723
			c-0.414,6.331-5.928,11.852-12.259,12.25l-6.727,0.426c-6.336,0.411-9.203,5.402-6.401,11.089l2.985,6.038
			c2.813,5.683,0.792,13.225-4.48,16.743L3.962,74.47c-5.272,3.511-5.272,9.273,0,12.785l5.615,3.741
			c5.284,3.517,7.3,11.054,4.492,16.745l-2.991,6.041c-2.808,5.68,0.071,10.675,6.395,11.089l6.75,0.413
			c6.324,0.414,11.839,5.935,12.247,12.26l0.425,6.708c0.408,6.337,5.402,9.215,11.083,6.401l6.018-2.967
			c5.698-2.819,13.234-0.805,16.745,4.48l3.741,5.609c3.523,5.284,9.28,5.284,12.803,0l3.735-5.609
			c3.523-5.285,11.054-7.3,16.74-4.48l6.04,2.979c5.687,2.813,10.675-0.07,11.077-6.401l0.438-6.72
			c0.414-6.325,5.928-11.846,12.259-12.26l6.696-0.413c6.331-0.414,9.209-5.409,6.408-11.089l-2.985-6.041
			c-2.813-5.686-0.798-13.229,4.475-16.745l5.609-3.741C163.05,83.743,163.05,77.98,157.778,74.47z M86.577,41.798h6.153
			l2.624,22.405h-5.019l-0.467-5.816h-6.442l-2.66,5.816h-5.089L86.577,41.798z M63.052,42.227c1.43-0.37,3.688-0.6,5.852-0.6
			c1.992,0,4.321,0.334,5.952,1.496c1.496,1.028,2.423,2.592,2.423,4.752c0,2.825-1.3,4.95-3.062,6.319
			c-1.827,1.427-4.416,2.063-7.146,2.063c-0.798,0-1.466-0.071-1.962-0.133l-1.531,8.08h-4.681L63.052,42.227z M41.217,59.01
			c1.33,0.807,3.222,1.428,5.278,1.428c1.868,0,3.564-0.863,3.564-2.624c0-1.266-0.964-2.096-3.026-3.154
			c-2.4-1.303-4.658-3.026-4.658-5.949c0-4.522,3.954-7.282,8.842-7.282c2.725,0,4.321,0.597,5.284,1.132l-1.489,3.986
			c-0.727-0.393-2.323-1.028-4.179-0.999c-2.228,0-3.398,1.141-3.398,2.367c0,1.297,1.371,2.095,3.257,3.153
			c2.725,1.43,4.457,3.257,4.457,5.919c0,4.989-4.132,7.548-9.108,7.548c-3.133,0-5.361-0.798-6.425-1.599L41.217,59.01z
			 M37.588,87.154c0-10.223,6.69-19.355,16.769-19.355c7.158,0,11.331,4.957,11.331,11.73c0,11.248-7.17,19.748-16.45,19.748
			C42.464,99.271,37.588,94.791,37.588,87.154z M52.229,120.674h-6.773l38.006-52.875h6.686L52.229,120.674z M81.807,120.515
			c-6.685,0-11.562-4.48-11.562-12.117c0-10.154,6.685-19.435,16.763-19.435c7.163,0,11.331,4.953,11.331,11.727
			C98.339,111.938,91.175,120.515,81.807,120.515z M108.565,120.674c-3.866,0-6.384-2.754-6.384-6.448
			c0-4.167,3.156-7.867,7.554-7.867c3.866,0,6.531,2.754,6.531,6.608C116.272,117.452,112.968,120.674,108.565,120.674z
			 M115.563,102.422h-8.73l5.113-35.651h12.199L115.563,102.422z"/>
	</g>
</g>
<g>
</g>
<g>
</g>
<g>
</g>
<g>
</g>
<g>
</g>
<g>
</g>
<g>
</g>
<g>
</g>
<g>
</g>
<g>
</g>
<g>
</g>
<g>
</g>
<g>
</g>
<g>
</g>
<g>
</g>
</svg>
