<?xml version="1.0" encoding="iso-8859-1"?>
<!-- Generator: Adobe Illustrator 16.0.0, SVG Export Plug-In . SVG Version: 6.00 Build 0)  -->
<!DOCTYPE svg PUBLIC "-//W3C//DTD SVG 1.1//EN" "http://www.w3.org/Graphics/SVG/1.1/DTD/svg11.dtd">
<svg version="1.1" id="Capa_1" xmlns="http://www.w3.org/2000/svg" xmlns:xlink="http://www.w3.org/1999/xlink" x="0px" y="0px"
	 width="123.689px" height="123.689px" viewBox="0 0 123.689 123.689" style="enable-background:new 0 0 123.689 123.689;"
	 xml:space="preserve">
<g>
	<g>
		<path d="M77.774,63.615c-3.37-0.985-6.905,0.945-7.893,4.318c-0.987,3.371,0.942,6.902,4.313,7.893
			c3.37,0.986,6.905-0.944,7.894-4.313C83.075,68.142,81.146,64.609,77.774,63.615z"/>
		<polygon points="42.67,16.62 41.887,15.044 36.479,17.729 37.263,19.306 39.005,18.441 41.765,23.999 43.693,23.04 40.932,17.484 
					"/>
		<path d="M55.165,12.979l0.453-4.758l-2.2,1.094l-0.144,2.822l-2.384-1.566l-2.137,1.061l3.956,2.381l-0.494,4.311l-5.594-5.668
			l-2.572,1.277l1.23,8.32l2.119-1.053l-0.304-1.516l2.318-1.152l1.016,1.164l1.727-0.859l0.38-0.189l1.801-0.895l0.268-2.914
			l2.499,1.541l2.229-1.109L55.165,12.979z M46.708,17.904c-0.26-1.266-0.442-2.107-0.544-2.533
			c-0.103-0.424-0.181-0.725-0.234-0.906c0.121,0.162,0.335,0.426,0.644,0.787c0.307,0.363,0.562,0.658,0.762,0.883l0.89,1.018
			L46.708,17.904z"/>
		<polygon points="68.07,11.99 68.487,10.622 70.816,11.333 71.291,9.779 67.055,8.488 64.868,15.654 66.776,16.238 67.597,13.544 
			69.743,14.199 70.219,12.646 		"/>
		<path d="M76.69,13.741c0.431-1.412-0.328-2.416-2.276-3.01l-2.349-0.716l-2.187,7.168l1.937,0.59l0.795-2.609l0.49,0.15
			l0.724,3.072l2.197,0.67l-1.136-3.76C75.836,15.089,76.437,14.572,76.69,13.741z M74.707,13.234
			c-0.183,0.596-0.611,0.793-1.288,0.586l-0.363-0.109l0.5-1.639l0.383,0.117C74.601,12.392,74.857,12.74,74.707,13.234z"/>
		<polygon points="81.25,17.447 81.726,15.894 79.577,15.238 79.922,14.111 82.24,14.818 82.715,13.263 78.459,11.964 
			76.272,19.132 80.527,20.433 81.011,18.853 78.69,18.146 79.104,16.792 		"/>
		<polygon points="81.382,20.693 85.638,21.988 86.119,20.411 83.801,19.704 84.214,18.351 86.36,19.005 86.834,17.45 
			84.688,16.796 85.031,15.667 87.351,16.376 87.823,14.822 83.568,13.525 		"/>
		<path d="M88.241,6.277c-2.15-3.166-5.407-5.303-9.166-6.021C78.185,0.086,77.277,0,76.378,0c-6.86,0-12.773,4.9-14.061,11.647
			c-0.198,1.039-0.309,2.234-0.339,3.525c-0.249-2.076-0.651-3.979-1.195-5.492c-2.04-5.672-7.458-9.482-13.483-9.482
			c-1.65,0-3.282,0.285-4.849,0.852c-3.601,1.293-6.482,3.914-8.113,7.377c-1.63,3.461-1.815,7.352-0.52,10.951
			c2.291,6.371,11.813,18.137,19.353,18.137c0.597,0,1.175-0.072,1.725-0.217c0.826,0.67,1.658,1.67,1.193,2.785
			c-0.342,0.822,0.489,0.467,1.513-0.268l5.901,18.012c-0.559,0.385-0.957,0.994-1.049,1.719c-1.104,8.783-0.028,15.91,2.883,19.072
			c0.035,0.039,0.071,0.074,0.107,0.11c-0.064,0.16-0.123,0.324-0.173,0.496l-3.95,13.472c-0.09,0.305-0.14,0.606-0.171,0.912
			c-0.139,0.332-0.217,0.694-0.223,1.077l-0.256,21.796c-0.019,1.61,1.271,2.934,2.884,2.954h0.036c1.595,0,2.896-1.286,2.916-2.887
			l0.194-16.47c0.145,0.027,0.288,0.054,0.432,0.07l-0.154,20.598c-0.012,1.611,1.284,2.931,2.896,2.941h0.022
			c1.601,0,2.905-1.293,2.917-2.897l0.171-22.791c0.362-0.476,0.647-1.021,0.829-1.642l1.9-6.481
			c-0.03,2.817-0.448,6.227-1.387,10.11c-0.318,1.326,0.496,2.66,1.822,2.98c0.193,0.045,0.388,0.068,0.581,0.068
			c1.115,0,2.126-0.76,2.398-1.89c2.789-11.557,1.653-20.7-2.96-23.866c-0.105-0.072-0.218-0.125-0.329-0.179
			c-0.395-0.358-0.823-0.674-1.275-0.932l-0.014-0.007l-1.93,1.113l-1.07-1.975c-0.73-0.033-1.479,0.049-2.2,0.24
			c-0.135-0.006-0.31-0.191-0.385-0.273c-1.49-1.619-2.631-7.037-1.614-15.105c0.133-1.055-0.42-2.033-1.31-2.496l3.534-16.449
			c0.41,0.168,0.615,0.094,0.415-0.389c-0.52-1.25,0.584-2.355,1.487-3.012c0.137,0.037,0.272,0.076,0.411,0.104
			c0.391,0.076,0.795,0.113,1.201,0.113c7.721,0,16-13.828,17.372-21.025C91.184,13.255,90.394,9.441,88.241,6.277z M72.547,77.503
			l0.027,0.008l-0.149,1.092c-0.08,0.265-0.12,0.529-0.109,0.8l-1.154,8.381L69.1,89.365l-0.029-0.008l-0.88-2.445L72.547,77.503z
			 M54.584,34.783c-0.434,0.156-0.91,0.234-1.413,0.234c-5.897,0-14.767-10.273-17-16.484c-2.207-6.137,0.99-12.924,7.127-15.133
			c1.295-0.465,2.641-0.701,4.002-0.701c4.974,0,9.447,3.146,11.131,7.828C60.769,17.022,60.45,32.671,54.584,34.783z
			 M64.718,56.718l-5.866-17.906c1.054-0.938,1.897-1.939,1.446-2.125c-0.731-0.301-1.888-0.563-1.94-1.631
			c1.867-2.152,3.133-5.654,3.657-10.25c0.154-1.352,0.236-2.754,0.253-4.152c0.25,2.061,0.653,4.16,1.198,6.123
			c1.042,3.76,2.486,6.664,4.22,8.584c0.278,1.443-1.076,1.738-1.897,2.076c-0.589,0.242,1.027,1.877,2.44,2.941L64.718,56.718z
			 M88.013,16.546c-1.192,6.252-8.85,18.992-14.917,18.992c-0.249,0-0.495-0.021-0.733-0.068c-2.611-0.496-4.977-3.908-6.488-9.361
			c-1.314-4.74-1.767-10.496-1.101-13.992C65.837,6.545,70.717,2.5,76.378,2.5c0.742,0,1.493,0.072,2.229,0.213
			c3.104,0.59,5.791,2.355,7.567,4.969C87.951,10.292,88.604,13.441,88.013,16.546z"/>
	</g>
</g>
<g>
</g>
<g>
</g>
<g>
</g>
<g>
</g>
<g>
</g>
<g>
</g>
<g>
</g>
<g>
</g>
<g>
</g>
<g>
</g>
<g>
</g>
<g>
</g>
<g>
</g>
<g>
</g>
<g>
</g>
</svg>
