<?xml version="1.0" encoding="iso-8859-1"?>
<!-- Generator: Adobe Illustrator 16.0.0, SVG Export Plug-In . SVG Version: 6.00 Build 0)  -->
<!DOCTYPE svg PUBLIC "-//W3C//DTD SVG 1.1//EN" "http://www.w3.org/Graphics/SVG/1.1/DTD/svg11.dtd">
<svg version="1.1" id="Capa_1" xmlns="http://www.w3.org/2000/svg" xmlns:xlink="http://www.w3.org/1999/xlink" x="0px" y="0px"
	 width="34.709px" height="34.709px" viewBox="0 0 34.709 34.709" style="enable-background:new 0 0 34.709 34.709;"
	 xml:space="preserve">
<g>
	<path d="M9.635,12.136c0,0.436-0.331,0.715-0.893,0.715H8.301v-1.369c0.082-0.015,0.236-0.037,0.509-0.037
		C9.327,11.452,9.635,11.681,9.635,12.136z M8.821,16.401c-0.099,0-0.166,0.011-0.201,0.02v0.635
		c0.041,0.011,0.094,0.012,0.163,0.012c0.259,0,0.417-0.13,0.417-0.35C9.2,16.52,9.063,16.401,8.821,16.401z M10.672,16.401
		c-0.099,0-0.164,0.011-0.199,0.02v0.635c0.041,0.011,0.093,0.012,0.162,0.012c0.259,0,0.416-0.13,0.416-0.35
		C11.051,16.52,10.917,16.401,10.672,16.401z M34.709,18.079l-0.168,2.624l-0.725,0.502v1.617h-1.293
		c0.076,0.267,0.121,0.547,0.121,0.838c0,1.66-1.354,3.014-3.017,3.014c-1.66,0-3.013-1.354-3.013-3.014
		c0-0.188,0.021-0.375,0.054-0.557c-0.209,0.062-0.388,0.055-0.388,0.055h-5.524c-0.166-0.336,0.224-0.672,0.224-0.672h4.912
		c0.559-0.391-0.058-0.67-0.058-0.67h-5.021c-0.559,0.168-0.67,1.062-0.67,1.062H8.929v-1.004c0,0-0.296,0-0.761,0
		c0.369,0.501,0.593,1.117,0.593,1.786c0,1.66-1.353,3.014-3.013,3.014c-1.662,0-3.015-1.354-3.015-3.014
		c0-0.669,0.222-1.285,0.591-1.786c-0.154,0-0.301,0-0.424,0c-1.562,0-2.9-0.502-2.9-0.502v-1.786h2.062h0.103
		c-0.094-0.172-0.146-0.37-0.146-0.58V9.263c0-0.678,0.55-1.228,1.229-1.228h15.559c0.678,0,1.227,0.55,1.227,1.228v9.743
		c0,0.21-0.053,0.408-0.145,0.58h1.15V9.317h6.529l3.291,4.632c2.791,0.447,2.346,1.507,2.346,1.507h-0.727v1.395h1.395v0.894
		L34.709,18.079z M15.493,15.612h3.166v-0.921H16.62v-1.179h1.825V12.6H16.62v-1.031h1.938v-0.921h-3.063v4.964H15.493z M6.319,17.3
		v0.899h0.485V16.05H6.319v0.826h-0.8V16.05H5.031v2.149h0.488V17.3H6.319z M3.308,15.612h1.127v-1.995h1.78v-0.913h-1.78V11.57
		h1.907v-0.921H3.308V15.612L3.308,15.612z M3.834,18.232c0.59,0,0.869-0.306,0.869-0.667c0-0.303-0.18-0.5-0.56-0.64
		c-0.276-0.107-0.397-0.167-0.397-0.306c0-0.111,0.102-0.206,0.312-0.206s0.363,0.061,0.449,0.103l0.109-0.393
		c-0.129-0.058-0.308-0.108-0.55-0.108c-0.508,0-0.813,0.28-0.813,0.647c0,0.312,0.232,0.51,0.591,0.634
		c0.258,0.094,0.358,0.169,0.358,0.303c0,0.141-0.117,0.233-0.341,0.233c-0.207,0-0.407-0.066-0.538-0.134l-0.1,0.403
		C3.347,18.168,3.588,18.232,3.834,18.232z M7.422,23.66c0-0.926-0.752-1.676-1.674-1.676c-0.924,0-1.675,0.75-1.675,1.676
		c0,0.923,0.751,1.674,1.675,1.674C6.67,25.333,7.422,24.583,7.422,23.66z M7.717,16.05H7.229v2.149h0.488V16.05z M9.681,16.706
		c0-0.21-0.093-0.39-0.229-0.498c-0.145-0.114-0.356-0.172-0.656-0.172c-0.297,0-0.508,0.02-0.657,0.045v2.12H8.62v-0.769
		c0.045,0.008,0.103,0.01,0.164,0.01c0.288,0,0.533-0.07,0.699-0.226C9.612,17.095,9.681,16.916,9.681,16.706z M9.79,15.612h1.149
		c-0.097-0.191-0.252-0.839-0.405-1.399c-0.126-0.458-0.316-0.788-0.662-0.928v-0.021c0.426-0.153,0.875-0.589,0.875-1.222
		c0-0.458-0.16-0.803-0.455-1.038c-0.354-0.28-0.869-0.391-1.605-0.392c-0.596,0-1.135,0.047-1.495,0.104v4.896h1.112v-1.951h0.339
		c0.456,0.007,0.671,0.176,0.802,0.794C9.59,15.066,9.709,15.472,9.79,15.612z M11.536,16.706c0-0.21-0.093-0.39-0.229-0.498
		c-0.144-0.114-0.356-0.172-0.656-0.172c-0.297,0-0.508,0.02-0.657,0.045v2.12h0.481v-0.769c0.044,0.008,0.102,0.01,0.166,0.01
		c0.286,0,0.532-0.07,0.698-0.226C11.465,17.095,11.536,16.916,11.536,16.706z M13.62,16.05h-0.486v0.826h-0.801V16.05h-0.486v2.149
		h0.486V17.3h0.801v0.899h0.486V16.05z M14.531,16.05h-0.487v2.149h0.487V16.05z M14.726,14.691h-2.04v-1.179h1.826V12.6h-1.826
		v-1.031h1.938v-0.921h-3.063v4.964h3.166L14.726,14.691L14.726,14.691z M16.731,16.05h-0.445v0.629c0,0.323,0.01,0.611,0.041,0.896
		h-0.011c-0.094-0.242-0.222-0.51-0.351-0.737L15.52,16.05h-0.568v2.149h0.446v-0.647c0-0.351-0.006-0.653-0.019-0.938l0.01-0.004
		c0.104,0.253,0.244,0.53,0.373,0.76l0.46,0.828h0.509V16.05L16.731,16.05z M18.949,16.969h-0.801v0.381h0.332v0.449
		c-0.039,0.019-0.127,0.032-0.239,0.032c-0.398,0-0.676-0.262-0.676-0.705c0-0.466,0.307-0.695,0.71-0.695
		c0.236,0,0.384,0.042,0.502,0.094l0.103-0.39c-0.104-0.052-0.319-0.106-0.597-0.106c-0.704,0-1.226,0.409-1.228,1.124
		c-0.004,0.314,0.104,0.596,0.302,0.782c0.198,0.188,0.481,0.29,0.874,0.29c0.285,0,0.566-0.07,0.719-0.121V16.969L18.949,16.969z
		 M24.331,14.674H22.38v0.781C24.945,15.457,24.331,14.674,24.331,14.674z M29.354,14.619l-2.455-4.24h-4.297l-0.057,3.516
		l3.961-0.057l0.447,0.781H29.354z M31.307,23.66c0-0.926-0.752-1.676-1.676-1.676s-1.674,0.75-1.674,1.676
		c0,0.923,0.75,1.674,1.674,1.674C30.555,25.333,31.307,24.583,31.307,23.66z"/>
</g>
<g>
</g>
<g>
</g>
<g>
</g>
<g>
</g>
<g>
</g>
<g>
</g>
<g>
</g>
<g>
</g>
<g>
</g>
<g>
</g>
<g>
</g>
<g>
</g>
<g>
</g>
<g>
</g>
<g>
</g>
</svg>
