<?xml version="1.0" encoding="iso-8859-1"?>
<!-- Generator: Adobe Illustrator 18.1.1, SVG Export Plug-In . SVG Version: 6.00 Build 0)  -->
<svg version="1.1" id="Capa_1" xmlns="http://www.w3.org/2000/svg" xmlns:xlink="http://www.w3.org/1999/xlink" x="0px" y="0px"
	 viewBox="0 0 179.006 179.006" style="enable-background:new 0 0 179.006 179.006;" xml:space="preserve">
<g>
	<g>
		<path style="fill:#010002;" d="M101.944,99.579c-2.351,5.102-5.776,8.67-10.275,10.722c-4.869,2.226-8.545,1.945-10.985-0.865
			c-1.486-1.671-2.524-3.98-3.109-6.91c6.349-2.739,12.697-5.722,19.046-8.562c0.501-1.957,1.014-3.896,1.522-5.848
			c-7.041,3.121-14.082,6.456-21.123,9.475c-0.012-0.579-0.024-1.175-0.024-1.808c0-1.384,0.024-2.709,0.113-3.98
			c6.504-2.792,13.008-5.854,19.518-8.759c0.513-1.951,1.02-3.902,1.528-5.848c-6.766,2.995-13.539,6.2-20.305,9.129
			c0.65-3.514,1.73-6.611,3.24-9.32c2.709-4.911,6.295-8.407,10.734-10.43c3.628-1.653,6.438-1.891,8.455-0.752
			c2.017,1.14,3.353,3.312,4.01,6.48c1.981-0.829,3.962-1.623,5.943-2.381c-0.358-4.404-2.094-7.811-5.251-10.072
			c-3.127-2.279-7.536-2.13-13.223,0.459c-6.683,3.055-11.904,8.157-15.705,15.251c-2.25,4.213-3.783,8.67-4.618,13.443
			c-2.572,1.026-5.143,1.993-7.715,2.876c-0.507,1.897-1.014,3.795-1.522,5.68c2.888-0.949,5.77-2.011,8.658-3.151
			c-0.054,0.919-0.084,1.832-0.084,2.733c0,1.044,0.03,2.047,0.084,3.025c-2.381,0.937-4.756,1.832-7.136,2.643
			c-0.507,1.891-1.014,3.795-1.522,5.68c3.055-1.002,6.11-2.13,9.165-3.353c0.943,5.961,3.103,10.036,6.444,12.131
			c3.556,2.232,7.936,2.118,13.145-0.257c6.05-2.763,10.848-7.166,14.422-13.229c2.989-5.042,4.738-10.418,5.281-16.26
			c-1.981,0.752-3.962,1.545-5.937,2.369C104.104,93.654,103.191,96.876,101.944,99.579z"/>
		<path style="fill:#010002;" d="M0,35.125c0,36.255,0,72.503,0,108.764c59.669,54.37,119.337-54.382,179.006,0
			c0-36.255,0-72.509,0-108.764C119.337-19.263,59.669,89.501,0,35.125z M89.503,129.7c-22.215,10.997-40.199-2.954-40.199-25.58
			c0-21.791,17.99-43.845,40.199-54.836c22.215-10.991,40.193,2.96,40.193,25.586C129.696,96.661,111.718,118.715,89.503,129.7z"/>
	</g>
</g>
<g>
</g>
<g>
</g>
<g>
</g>
<g>
</g>
<g>
</g>
<g>
</g>
<g>
</g>
<g>
</g>
<g>
</g>
<g>
</g>
<g>
</g>
<g>
</g>
<g>
</g>
<g>
</g>
<g>
</g>
</svg>
