<?xml version="1.0" encoding="iso-8859-1"?>
<!-- Generator: Adobe Illustrator 16.0.0, SVG Export Plug-In . SVG Version: 6.00 Build 0)  -->
<!DOCTYPE svg PUBLIC "-//W3C//DTD SVG 1.1//EN" "http://www.w3.org/Graphics/SVG/1.1/DTD/svg11.dtd">
<svg version="1.1" id="Capa_1" xmlns="http://www.w3.org/2000/svg" xmlns:xlink="http://www.w3.org/1999/xlink" x="0px" y="0px"
	 width="440.001px" height="440.001px" viewBox="0 0 440.001 440.001" style="enable-background:new 0 0 440.001 440.001;"
	 xml:space="preserve">
<g>
	<g>
		<g>
			<path d="M439.213,382.708l-27.329-109.313c-0.425-1.705-1.093-3.297-1.94-4.761c1.562-4.334,2.42-9.004,2.42-13.868V74.571
				c0-22.596-18.382-40.979-40.979-40.979H68.601c-22.599,0-40.981,18.383-40.981,40.979v180.193c0,4.865,0.857,9.535,2.423,13.869
				c-0.849,1.465-1.52,3.055-1.945,4.76L0.548,383.589c-1.371,5.486-0.138,11.3,3.343,15.756c3.48,4.459,8.82,7.064,14.477,7.064
				h403.249c0.006,0,0.013,0,0.017,0c10.146,0,18.367-8.225,18.367-18.367C440,386.188,439.725,384.397,439.213,382.708z
				 M266.537,377.695c-0.004,0-0.009,0.002-0.016,0h-93.061c-1.074,0-2.094-0.478-2.781-1.302c-0.689-0.823-0.978-1.909-0.787-2.969
				l7.252-40.246c0.311-1.727,1.814-2.98,3.568-2.98h78.559c1.754,0,3.257,1.256,3.566,2.98l7.192,39.925
				c0.085,0.308,0.131,0.631,0.131,0.967C270.163,376.073,268.539,377.695,266.537,377.695z M376.57,254.766
				c0,2.094-1.25,3.897-3.04,4.717H66.452c-1.792-0.817-3.043-2.623-3.043-4.717V74.571c0-2.861,2.329-5.188,5.191-5.188h302.783
				c2.859,0,5.188,2.326,5.188,5.188L376.57,254.766L376.57,254.766z"/>
			<path d="M266.007,80.522c-12.949,0-27.79,4.37-42.854,12.239c8.48,0.245,16.599,1.913,24.065,4.888
				c6.673-2.102,13.021-3.232,18.789-3.232c8.068,0,14.334,2.173,18.62,6.462c7.396,7.394,8.473,21.358,2.949,38.313
				c-0.316,0.97-0.656,1.948-1.01,2.928c1.998,6.894,3.097,14.242,3.214,21.853c0.022,1.618-0.167,3.22-0.557,4.774
				c4.947-8.449,8.858-16.952,11.563-25.252c7.306-22.428,5.054-41.053-6.335-52.442C287.562,84.164,277.727,80.522,266.007,80.522z
				"/>
			<path d="M173.993,236.592c-8.068,0-14.334-2.174-18.62-6.463c-7.396-7.396-8.473-21.356-2.951-38.313
				c0.355-1.09,0.737-2.184,1.14-3.281c-2.2-7.303-3.345-15.087-3.345-23.14c0-0.746,0.014-1.49,0.033-2.231
				c-4.699,8.154-8.432,16.346-11.038,24.35c-7.306,22.427-5.054,41.052,6.336,52.441c6.89,6.889,16.726,10.528,28.445,10.528
				c12.907,0,27.757-4.295,43.03-12.308c-8.211-0.419-16.086-2.155-23.374-5.097C186.6,235.378,179.938,236.592,173.993,236.592z"/>
			<path d="M220.967,101.227c-17.382,0-33.249,6.526-44.678,18.378c-11.334,11.748-17.573,28.012-17.573,45.791
				c0,17.833,6.235,34.148,17.56,45.937c11.43,11.898,27.302,18.45,44.691,18.45c18.886,0,35.876-6.845,47.847-19.268
				c3.854-4.004,3.794-10.356-0.14-14.289l-1.377-1.377c-1.946-1.945-4.596-3.007-7.354-2.983c-2.756,0.041-5.374,1.19-7.269,3.196
				c-7.505,7.942-18.767,12.318-31.708,12.318c-11.308,0-21.459-4.067-28.588-11.458c-5.398-5.598-8.994-13.026-10.484-21.463
				h89.191c2.732,0,5.35-1.096,7.267-3.04c1.917-1.948,2.975-4.58,2.933-7.315c-0.273-17.647-6.348-33.618-17.101-44.964
				C253.24,107.587,237.892,101.227,220.967,101.227z M182.947,152.061c1.965-7.078,5.538-13.194,10.563-17.999
				c7.139-6.829,16.633-10.436,27.457-10.436c18.595,0,31.916,10.661,36.427,28.435H182.947z"/>
		</g>
	</g>
</g>
<g>
</g>
<g>
</g>
<g>
</g>
<g>
</g>
<g>
</g>
<g>
</g>
<g>
</g>
<g>
</g>
<g>
</g>
<g>
</g>
<g>
</g>
<g>
</g>
<g>
</g>
<g>
</g>
<g>
</g>
</svg>
