<?xml version="1.0" encoding="iso-8859-1"?>
<!-- Generator: Adobe Illustrator 19.0.0, SVG Export Plug-In . SVG Version: 6.00 Build 0)  -->
<svg version="1.1" id="Capa_1" xmlns="http://www.w3.org/2000/svg" xmlns:xlink="http://www.w3.org/1999/xlink" x="0px" y="0px"
	 viewBox="0 0 58 58" style="enable-background:new 0 0 58 58;" xml:space="preserve">
<g>
	<polygon style="fill:#CBB292;" points="47,45 53,42.75 53,9.125 50,8 53,6.875 53,0 46.125,0 45,3 43.875,0 5,0 5,13.375 12,16 
		5,18.625 5,51.5 9,53 5,54.5 5,58 15.875,58 17,55 18.125,58 53,58 53,47.25 	"/>
	<g>
		<g>
			<path style="fill:#CBB292;" d="M29.5,37.542c-3.914,0-7.556-0.679-10.61-1.842c1.688,7.794,5.801,11.956,10.61,11.956
				s8.923-4.162,10.61-11.956C37.056,36.863,33.414,37.542,29.5,37.542z"/>
			<path style="fill:#7F6E5D;" d="M29.5,48.655c-5.528,0-9.86-4.764-11.588-12.745l-0.391-1.803l1.725,0.657
				c3.05,1.163,6.596,1.777,10.254,1.777s7.204-0.614,10.254-1.777l1.725-0.657l-0.391,1.803
				C39.36,43.891,35.028,48.655,29.5,48.655z M20.306,37.237c1.705,5.934,5.067,9.418,9.194,9.418s7.489-3.484,9.194-9.418
				C33.017,38.95,25.983,38.95,20.306,37.237z"/>
		</g>
	</g>
	<g>
		<line style="fill:#FFFFFF;" x1="30.172" y1="46.31" x2="27.483" y2="49"/>
		<path style="fill:#7F6E5D;" d="M27.482,50c-0.256,0-0.512-0.098-0.707-0.293c-0.391-0.391-0.391-1.024,0-1.414l2.69-2.689
			c0.391-0.391,1.023-0.391,1.414,0s0.391,1.024,0,1.414l-2.69,2.689C27.994,49.902,27.738,50,27.482,50z"/>
	</g>
	<g>
		<line style="fill:#FFFFFF;" x1="28.828" y1="46.31" x2="31.517" y2="49"/>
		<path style="fill:#7F6E5D;" d="M31.518,50c-0.256,0-0.512-0.098-0.707-0.293l-2.69-2.689c-0.391-0.39-0.391-1.023,0-1.414
			s1.023-0.391,1.414,0l2.69,2.689c0.391,0.39,0.391,1.023,0,1.414C32.029,49.902,31.773,50,31.518,50z"/>
	</g>
	<path style="fill:#E4C05C;" d="M42.3,26.353c0.055,0.236-0.061,0.478-0.28,0.582l-3.106,1.479c-6.105,3.204-12.499,3.208-18.828,0
		l-3.106-1.479c-0.218-0.104-0.335-0.346-0.28-0.582l3.386-14.487c0.129-0.775,0.632-1.382,1.285-1.684
		c0.67-0.31,1.462-0.204,2.094,0.178l2.03,1.227c2.463,1.489,5.548,1.489,8.01,0l2.03-1.227c0.632-0.382,1.423-0.488,2.094-0.178
		c0.653,0.302,1.156,0.91,1.285,1.684L42.3,26.353z"/>
	<path style="fill:#E6E7E8;" d="M37.629,10.181c-0.67-0.31-1.462-0.204-2.094,0.178l-2.03,1.227c-2.463,1.489-5.548,1.489-8.01,0
		l-2.03-1.227c-0.632-0.382-1.423-0.488-2.094-0.178c-0.653,0.302-1.156,0.91-1.285,1.684l-2.49,10.655l2.49,1.186
		c6.329,3.208,12.722,3.204,18.828,0l2.49-1.186l-2.49-10.655C38.785,11.091,38.281,10.483,37.629,10.181z"/>
	<path style="fill:#E6E7E8;" d="M41.949,24.854l0.35,1.498c0.055,0.236-0.061,0.478-0.28,0.582l-3.106,1.479
		c-6.105,3.204-12.499,3.208-18.828,0l-3.106-1.479c-0.218-0.104-0.335-0.346-0.28-0.582l0.35-1.498
		C12.744,23.423,10,22.572,10,26.111c0,6.313,8.73,11.431,19.5,11.431S49,32.424,49,26.111C49,22.572,46.257,23.423,41.949,24.854z"
		/>
</g>
<g>
</g>
<g>
</g>
<g>
</g>
<g>
</g>
<g>
</g>
<g>
</g>
<g>
</g>
<g>
</g>
<g>
</g>
<g>
</g>
<g>
</g>
<g>
</g>
<g>
</g>
<g>
</g>
<g>
</g>
</svg>
