<?xml version="1.0" encoding="iso-8859-1"?>
<!-- Generator: Adobe Illustrator 16.0.0, SVG Export Plug-In . SVG Version: 6.00 Build 0)  -->
<!DOCTYPE svg PUBLIC "-//W3C//DTD SVG 1.1//EN" "http://www.w3.org/Graphics/SVG/1.1/DTD/svg11.dtd">
<svg version="1.1" id="Capa_1" xmlns="http://www.w3.org/2000/svg" xmlns:xlink="http://www.w3.org/1999/xlink" x="0px" y="0px"
	 width="365.281px" height="365.281px" viewBox="0 0 365.281 365.281" style="enable-background:new 0 0 365.281 365.281;"
	 xml:space="preserve">
<g>
	<g>
		<path d="M305.685,56.082C284.044,23.973,245.218,5.336,190.377,0.699l-0.091-0.008C186.243,0.232,182.359,0,178.745,0
			c-27.648,0-37.459,13.84-37.459,25.691v206.27h-0.001c-10.874-3.277-22.538-4.223-34.057-2.768
			C87.154,231.726,69.17,241.15,56.59,255.73C44.009,270.31,38.338,288.3,40.622,306.386c4.237,33.576,35.66,58.896,73.096,58.896
			c3.515,0,7.08-0.226,10.599-0.668c38.805-4.898,66.97-35.677,66.97-73.181V89.037c2.913-0.195,5.831-0.293,8.677-0.293
			c34.213,0,65.668,14.313,90.966,41.389c10.429,11.162,17.748,22.262,22.055,29.609c1.058,1.803,3.119,2.764,5.186,2.396
			c2.058-0.365,3.673-1.971,4.047-4.027C326.366,135.325,329.739,91.77,305.685,56.082z"/>
	</g>
</g>
<g>
</g>
<g>
</g>
<g>
</g>
<g>
</g>
<g>
</g>
<g>
</g>
<g>
</g>
<g>
</g>
<g>
</g>
<g>
</g>
<g>
</g>
<g>
</g>
<g>
</g>
<g>
</g>
<g>
</g>
</svg>
